<mxfile host="65bd71144e">
    <diagram name="Page-1" id="9f46799a-70d6-7492-0946-bef42562c5a5">
        <mxGraphModel dx="1326" dy="941" grid="1" gridSize="10" guides="1" tooltips="1" connect="1" arrows="1" fold="1" page="1" pageScale="1" pageWidth="1100" pageHeight="850" background="none" math="0" shadow="0">
            <root>
                <mxCell id="0"/>
                <mxCell id="1" parent="0"/>
                <mxCell id="78961159f06e98e8-17" value="Character" style="swimlane;html=1;fontStyle=1;align=center;verticalAlign=top;childLayout=stackLayout;horizontal=1;startSize=26;horizontalStack=0;resizeParent=1;resizeLast=0;collapsible=1;marginBottom=0;swimlaneFillColor=#ffffff;rounded=0;shadow=0;comic=0;labelBackgroundColor=none;strokeWidth=1;fillColor=none;fontFamily=Verdana;fontSize=12" parent="1" vertex="1">
                    <mxGeometry x="1070" y="745" width="240" height="437" as="geometry"/>
                </mxCell>
                <mxCell id="78961159f06e98e8-21" value="- _name : string" style="text;html=1;strokeColor=none;fillColor=none;align=left;verticalAlign=top;spacingLeft=4;spacingRight=4;whiteSpace=wrap;overflow=hidden;rotatable=0;points=[[0,0.5],[1,0.5]];portConstraint=eastwest;" parent="78961159f06e98e8-17" vertex="1">
                    <mxGeometry y="26" width="240" height="26" as="geometry"/>
                </mxCell>
                <mxCell id="78961159f06e98e8-23" value="- _inventory : AMateria**" style="text;html=1;strokeColor=none;fillColor=none;align=left;verticalAlign=top;spacingLeft=4;spacingRight=4;whiteSpace=wrap;overflow=hidden;rotatable=0;points=[[0,0.5],[1,0.5]];portConstraint=eastwest;" parent="78961159f06e98e8-17" vertex="1">
                    <mxGeometry y="52" width="240" height="26" as="geometry"/>
                </mxCell>
                <mxCell id="78961159f06e98e8-19" value="" style="line;html=1;strokeWidth=1;fillColor=none;align=left;verticalAlign=middle;spacingTop=-1;spacingLeft=3;spacingRight=3;rotatable=0;labelPosition=right;points=[];portConstraint=eastwest;" parent="78961159f06e98e8-17" vertex="1">
                    <mxGeometry y="78" width="240" height="8" as="geometry"/>
                </mxCell>
                <mxCell id="78961159f06e98e8-20" value="+ Character(Character &amp;amp;)" style="text;html=1;strokeColor=none;fillColor=none;align=left;verticalAlign=top;spacingLeft=4;spacingRight=4;whiteSpace=wrap;overflow=hidden;rotatable=0;points=[[0,0.5],[1,0.5]];portConstraint=eastwest;" parent="78961159f06e98e8-17" vertex="1">
                    <mxGeometry y="86" width="240" height="26" as="geometry"/>
                </mxCell>
                <mxCell id="78961159f06e98e8-27" value="+ Character(string)" style="text;html=1;strokeColor=none;fillColor=none;align=left;verticalAlign=top;spacingLeft=4;spacingRight=4;whiteSpace=wrap;overflow=hidden;rotatable=0;points=[[0,0.5],[1,0.5]];portConstraint=eastwest;" parent="78961159f06e98e8-17" vertex="1">
                    <mxGeometry y="112" width="240" height="26" as="geometry"/>
                </mxCell>
                <mxCell id="3" value="+ ~Character()" style="text;html=1;strokeColor=none;fillColor=none;align=left;verticalAlign=top;spacingLeft=4;spacingRight=4;whiteSpace=wrap;overflow=hidden;rotatable=0;points=[[0,0.5],[1,0.5]];portConstraint=eastwest;" parent="78961159f06e98e8-17" vertex="1">
                    <mxGeometry y="138" width="240" height="26" as="geometry"/>
                </mxCell>
                <mxCell id="4" value="+ operator=(Character &amp;amp;): Character &amp;amp;" style="text;html=1;strokeColor=none;fillColor=none;align=left;verticalAlign=top;spacingLeft=4;spacingRight=4;whiteSpace=wrap;overflow=hidden;rotatable=0;points=[[0,0.5],[1,0.5]];portConstraint=eastwest;" parent="78961159f06e98e8-17" vertex="1">
                    <mxGeometry y="164" width="240" height="26" as="geometry"/>
                </mxCell>
                <mxCell id="5" value="+ const getName(): string const &amp;amp;&amp;nbsp;" style="text;html=1;strokeColor=none;fillColor=none;align=left;verticalAlign=top;spacingLeft=4;spacingRight=4;whiteSpace=wrap;overflow=hidden;rotatable=0;points=[[0,0.5],[1,0.5]];portConstraint=eastwest;" parent="78961159f06e98e8-17" vertex="1">
                    <mxGeometry y="190" width="240" height="30" as="geometry"/>
                </mxCell>
                <mxCell id="9" value="+ const getMateria(int): AMateria *" style="text;html=1;strokeColor=none;fillColor=none;align=left;verticalAlign=top;spacingLeft=4;spacingRight=4;whiteSpace=wrap;overflow=hidden;rotatable=0;points=[[0,0.5],[1,0.5]];portConstraint=eastwest;" parent="78961159f06e98e8-17" vertex="1">
                    <mxGeometry y="220" width="240" height="30" as="geometry"/>
                </mxCell>
                <mxCell id="6" value="+ equip(AMateria *): void" style="text;html=1;strokeColor=none;fillColor=none;align=left;verticalAlign=top;spacingLeft=4;spacingRight=4;whiteSpace=wrap;overflow=hidden;rotatable=0;points=[[0,0.5],[1,0.5]];portConstraint=eastwest;" parent="78961159f06e98e8-17" vertex="1">
                    <mxGeometry y="250" width="240" height="30" as="geometry"/>
                </mxCell>
                <mxCell id="7" value="+ unequip(int): void" style="text;html=1;strokeColor=none;fillColor=none;align=left;verticalAlign=top;spacingLeft=4;spacingRight=4;whiteSpace=wrap;overflow=hidden;rotatable=0;points=[[0,0.5],[1,0.5]];portConstraint=eastwest;" parent="78961159f06e98e8-17" vertex="1">
                    <mxGeometry y="280" width="240" height="30" as="geometry"/>
                </mxCell>
                <mxCell id="8" value="+ use(int, ICharacter &amp;amp;): void" style="text;html=1;strokeColor=none;fillColor=none;align=left;verticalAlign=top;spacingLeft=4;spacingRight=4;whiteSpace=wrap;overflow=hidden;rotatable=0;points=[[0,0.5],[1,0.5]];portConstraint=eastwest;" parent="78961159f06e98e8-17" vertex="1">
                    <mxGeometry y="310" width="240" height="30" as="geometry"/>
                </mxCell>
                <mxCell id="10" value="+ setName(string): void" style="text;html=1;strokeColor=none;fillColor=none;align=left;verticalAlign=top;spacingLeft=4;spacingRight=4;whiteSpace=wrap;overflow=hidden;rotatable=0;points=[[0,0.5],[1,0.5]];portConstraint=eastwest;" parent="78961159f06e98e8-17" vertex="1">
                    <mxGeometry y="340" width="240" height="30" as="geometry"/>
                </mxCell>
                <mxCell id="12" value="- clearInventory(): void" style="text;html=1;strokeColor=none;fillColor=none;align=left;verticalAlign=top;spacingLeft=4;spacingRight=4;whiteSpace=wrap;overflow=hidden;rotatable=0;points=[[0,0.5],[1,0.5]];portConstraint=eastwest;" parent="78961159f06e98e8-17" vertex="1">
                    <mxGeometry y="370" width="240" height="30" as="geometry"/>
                </mxCell>
                <mxCell id="13" value="+ copyInventory(const Character &amp;amp;): void" style="text;html=1;strokeColor=none;fillColor=none;align=left;verticalAlign=top;spacingLeft=4;spacingRight=4;whiteSpace=wrap;overflow=hidden;rotatable=0;points=[[0,0.5],[1,0.5]];portConstraint=eastwest;" parent="78961159f06e98e8-17" vertex="1">
                    <mxGeometry y="400" width="240" height="30" as="geometry"/>
                </mxCell>
                <mxCell id="78961159f06e98e8-30" value="&lt;i&gt;ICharacter&lt;/i&gt;" style="swimlane;html=1;fontStyle=1;align=center;verticalAlign=top;childLayout=stackLayout;horizontal=1;startSize=26;horizontalStack=0;resizeParent=1;resizeLast=0;collapsible=1;marginBottom=0;swimlaneFillColor=#ffffff;rounded=0;shadow=0;comic=0;labelBackgroundColor=none;strokeWidth=1;fillColor=none;fontFamily=Verdana;fontSize=12" parent="1" vertex="1">
                    <mxGeometry x="1070" y="360" width="190" height="207" as="geometry"/>
                </mxCell>
                <mxCell id="78961159f06e98e8-38" value="" style="line;html=1;strokeWidth=1;fillColor=none;align=left;verticalAlign=middle;spacingTop=-1;spacingLeft=3;spacingRight=3;rotatable=0;labelPosition=right;points=[];portConstraint=eastwest;" parent="78961159f06e98e8-30" vertex="1">
                    <mxGeometry y="26" width="190" height="44" as="geometry"/>
                </mxCell>
                <mxCell id="78961159f06e98e8-39" value="+ &lt;i&gt;ICharacter()&lt;/i&gt;" style="text;html=1;strokeColor=none;fillColor=none;align=left;verticalAlign=top;spacingLeft=4;spacingRight=4;whiteSpace=wrap;overflow=hidden;rotatable=0;points=[[0,0.5],[1,0.5]];portConstraint=eastwest;" parent="78961159f06e98e8-30" vertex="1">
                    <mxGeometry y="70" width="190" height="26" as="geometry"/>
                </mxCell>
                <mxCell id="78961159f06e98e8-40" value="+ const &lt;i&gt;getName():&lt;/i&gt;&amp;nbsp;string" style="text;html=1;strokeColor=none;fillColor=none;align=left;verticalAlign=top;spacingLeft=4;spacingRight=4;whiteSpace=wrap;overflow=hidden;rotatable=0;points=[[0,0.5],[1,0.5]];portConstraint=eastwest;" parent="78961159f06e98e8-30" vertex="1">
                    <mxGeometry y="96" width="190" height="26" as="geometry"/>
                </mxCell>
                <mxCell id="78961159f06e98e8-42" value="+ &lt;i&gt;equip(AMateria *):&lt;/i&gt; void" style="text;html=1;strokeColor=none;fillColor=none;align=left;verticalAlign=top;spacingLeft=4;spacingRight=4;whiteSpace=wrap;overflow=hidden;rotatable=0;points=[[0,0.5],[1,0.5]];portConstraint=eastwest;" parent="78961159f06e98e8-30" vertex="1">
                    <mxGeometry y="122" width="190" height="26" as="geometry"/>
                </mxCell>
                <mxCell id="15" value="+ &lt;i&gt;unequip(int):&lt;/i&gt; void" style="text;html=1;strokeColor=none;fillColor=none;align=left;verticalAlign=top;spacingLeft=4;spacingRight=4;whiteSpace=wrap;overflow=hidden;rotatable=0;points=[[0,0.5],[1,0.5]];portConstraint=eastwest;" parent="78961159f06e98e8-30" vertex="1">
                    <mxGeometry y="148" width="190" height="26" as="geometry"/>
                </mxCell>
                <mxCell id="16" value="&lt;i&gt;+ use(int, ICharacter &amp;amp;): void&lt;/i&gt;" style="text;html=1;strokeColor=none;fillColor=none;align=left;verticalAlign=top;spacingLeft=4;spacingRight=4;whiteSpace=wrap;overflow=hidden;rotatable=0;points=[[0,0.5],[1,0.5]];portConstraint=eastwest;" parent="78961159f06e98e8-30" vertex="1">
                    <mxGeometry y="174" width="190" height="26" as="geometry"/>
                </mxCell>
                <mxCell id="78961159f06e98e8-43" value="AMateria" style="swimlane;html=1;fontStyle=1;align=center;verticalAlign=top;childLayout=stackLayout;horizontal=1;startSize=26;horizontalStack=0;resizeParent=1;resizeLast=0;collapsible=1;marginBottom=0;swimlaneFillColor=#ffffff;rounded=0;shadow=0;comic=0;labelBackgroundColor=none;strokeWidth=1;fillColor=none;fontFamily=Verdana;fontSize=12" parent="1" vertex="1">
                    <mxGeometry x="580" y="510" width="190" height="307" as="geometry"/>
                </mxCell>
                <mxCell id="78961159f06e98e8-44" value="# _type: string" style="text;html=1;strokeColor=none;fillColor=none;align=left;verticalAlign=top;spacingLeft=4;spacingRight=4;whiteSpace=wrap;overflow=hidden;rotatable=0;points=[[0,0.5],[1,0.5]];portConstraint=eastwest;" parent="78961159f06e98e8-43" vertex="1">
                    <mxGeometry y="26" width="190" height="26" as="geometry"/>
                </mxCell>
                <mxCell id="78961159f06e98e8-51" value="" style="line;html=1;strokeWidth=1;fillColor=none;align=left;verticalAlign=middle;spacingTop=-1;spacingLeft=3;spacingRight=3;rotatable=0;labelPosition=right;points=[];portConstraint=eastwest;" parent="78961159f06e98e8-43" vertex="1">
                    <mxGeometry y="52" width="190" height="8" as="geometry"/>
                </mxCell>
                <mxCell id="78961159f06e98e8-52" value="+ AMateria(type)" style="text;html=1;strokeColor=none;fillColor=none;align=left;verticalAlign=top;spacingLeft=4;spacingRight=4;whiteSpace=wrap;overflow=hidden;rotatable=0;points=[[0,0.5],[1,0.5]];portConstraint=eastwest;" parent="78961159f06e98e8-43" vertex="1">
                    <mxGeometry y="60" width="190" height="26" as="geometry"/>
                </mxCell>
                <mxCell id="78961159f06e98e8-53" value="+ AMateria(string const &amp;amp;)" style="text;html=1;strokeColor=none;fillColor=none;align=left;verticalAlign=top;spacingLeft=4;spacingRight=4;whiteSpace=wrap;overflow=hidden;rotatable=0;points=[[0,0.5],[1,0.5]];portConstraint=eastwest;" parent="78961159f06e98e8-43" vertex="1">
                    <mxGeometry y="86" width="190" height="26" as="geometry"/>
                </mxCell>
                <mxCell id="17" value="+ AMateria(AMateria cosnt &amp;amp;)" style="text;html=1;strokeColor=none;fillColor=none;align=left;verticalAlign=top;spacingLeft=4;spacingRight=4;whiteSpace=wrap;overflow=hidden;rotatable=0;points=[[0,0.5],[1,0.5]];portConstraint=eastwest;" parent="78961159f06e98e8-43" vertex="1">
                    <mxGeometry y="112" width="190" height="26" as="geometry"/>
                </mxCell>
                <mxCell id="18" value="+ &lt;i&gt;~AMateria()&lt;/i&gt;" style="text;html=1;strokeColor=none;fillColor=none;align=left;verticalAlign=top;spacingLeft=4;spacingRight=4;whiteSpace=wrap;overflow=hidden;rotatable=0;points=[[0,0.5],[1,0.5]];portConstraint=eastwest;" parent="78961159f06e98e8-43" vertex="1">
                    <mxGeometry y="138" width="190" height="26" as="geometry"/>
                </mxCell>
                <mxCell id="20" value="+ operator=(AMateria cosnt &amp;amp;): AMateria &amp;amp;" style="text;html=1;strokeColor=none;fillColor=none;align=left;verticalAlign=top;spacingLeft=4;spacingRight=4;whiteSpace=wrap;overflow=hidden;rotatable=0;points=[[0,0.5],[1,0.5]];portConstraint=eastwest;" parent="78961159f06e98e8-43" vertex="1">
                    <mxGeometry y="164" width="190" height="36" as="geometry"/>
                </mxCell>
                <mxCell id="21" value="+ const getType(): const string &amp;amp;&amp;nbsp;" style="text;html=1;strokeColor=none;fillColor=none;align=left;verticalAlign=top;spacingLeft=4;spacingRight=4;whiteSpace=wrap;overflow=hidden;rotatable=0;points=[[0,0.5],[1,0.5]];portConstraint=eastwest;" parent="78961159f06e98e8-43" vertex="1">
                    <mxGeometry y="200" width="190" height="26" as="geometry"/>
                </mxCell>
                <mxCell id="22" value="+ &lt;i&gt;const clone (): &lt;/i&gt;AMateria *" style="text;html=1;strokeColor=none;fillColor=none;align=left;verticalAlign=top;spacingLeft=4;spacingRight=4;whiteSpace=wrap;overflow=hidden;rotatable=0;points=[[0,0.5],[1,0.5]];portConstraint=eastwest;" parent="78961159f06e98e8-43" vertex="1">
                    <mxGeometry y="226" width="190" height="26" as="geometry"/>
                </mxCell>
                <mxCell id="23" value="+ &lt;i&gt;use(ICharacter &amp;amp;):&lt;/i&gt; void" style="text;html=1;strokeColor=none;fillColor=none;align=left;verticalAlign=top;spacingLeft=4;spacingRight=4;whiteSpace=wrap;overflow=hidden;rotatable=0;points=[[0,0.5],[1,0.5]];portConstraint=eastwest;" parent="78961159f06e98e8-43" vertex="1">
                    <mxGeometry y="252" width="190" height="26" as="geometry"/>
                </mxCell>
                <mxCell id="78961159f06e98e8-56" value="Cure" style="swimlane;html=1;fontStyle=1;align=center;verticalAlign=top;childLayout=stackLayout;horizontal=1;startSize=26;horizontalStack=0;resizeParent=1;resizeLast=0;collapsible=1;marginBottom=0;swimlaneFillColor=#ffffff;rounded=0;shadow=0;comic=0;labelBackgroundColor=none;strokeWidth=1;fillColor=none;fontFamily=Verdana;fontSize=12" parent="1" vertex="1">
                    <mxGeometry x="720" y="960" width="160" height="222" as="geometry"/>
                </mxCell>
                <mxCell id="78961159f06e98e8-64" value="" style="line;html=1;strokeWidth=1;fillColor=none;align=left;verticalAlign=middle;spacingTop=-1;spacingLeft=3;spacingRight=3;rotatable=0;labelPosition=right;points=[];portConstraint=eastwest;" parent="78961159f06e98e8-56" vertex="1">
                    <mxGeometry y="26" width="160" height="8" as="geometry"/>
                </mxCell>
                <mxCell id="78961159f06e98e8-66" value="+ cure()" style="text;html=1;strokeColor=none;fillColor=none;align=left;verticalAlign=top;spacingLeft=4;spacingRight=4;whiteSpace=wrap;overflow=hidden;rotatable=0;points=[[0,0.5],[1,0.5]];portConstraint=eastwest;" parent="78961159f06e98e8-56" vertex="1">
                    <mxGeometry y="34" width="160" height="26" as="geometry"/>
                </mxCell>
                <mxCell id="29" value="+ cure(cosnt string &amp;amp;)" style="text;html=1;strokeColor=none;fillColor=none;align=left;verticalAlign=top;spacingLeft=4;spacingRight=4;whiteSpace=wrap;overflow=hidden;rotatable=0;points=[[0,0.5],[1,0.5]];portConstraint=eastwest;" parent="78961159f06e98e8-56" vertex="1">
                    <mxGeometry y="60" width="160" height="26" as="geometry"/>
                </mxCell>
                <mxCell id="30" value="+ cure(const Cure &amp;amp;)" style="text;html=1;strokeColor=none;fillColor=none;align=left;verticalAlign=top;spacingLeft=4;spacingRight=4;whiteSpace=wrap;overflow=hidden;rotatable=0;points=[[0,0.5],[1,0.5]];portConstraint=eastwest;" parent="78961159f06e98e8-56" vertex="1">
                    <mxGeometry y="86" width="160" height="26" as="geometry"/>
                </mxCell>
                <mxCell id="31" value="+ ~cure()" style="text;html=1;strokeColor=none;fillColor=none;align=left;verticalAlign=top;spacingLeft=4;spacingRight=4;whiteSpace=wrap;overflow=hidden;rotatable=0;points=[[0,0.5],[1,0.5]];portConstraint=eastwest;" parent="78961159f06e98e8-56" vertex="1">
                    <mxGeometry y="112" width="160" height="26" as="geometry"/>
                </mxCell>
                <mxCell id="32" value="+ operator=(string const &amp;amp;):&lt;div&gt;Cure &amp;amp;&lt;/div&gt;" style="text;html=1;strokeColor=none;fillColor=none;align=left;verticalAlign=top;spacingLeft=4;spacingRight=4;whiteSpace=wrap;overflow=hidden;rotatable=0;points=[[0,0.5],[1,0.5]];portConstraint=eastwest;" parent="78961159f06e98e8-56" vertex="1">
                    <mxGeometry y="138" width="160" height="32" as="geometry"/>
                </mxCell>
                <mxCell id="33" value="+ const clone(): AMateria *" style="text;html=1;strokeColor=none;fillColor=none;align=left;verticalAlign=top;spacingLeft=4;spacingRight=4;whiteSpace=wrap;overflow=hidden;rotatable=0;points=[[0,0.5],[1,0.5]];portConstraint=eastwest;" parent="78961159f06e98e8-56" vertex="1">
                    <mxGeometry y="170" width="160" height="26" as="geometry"/>
                </mxCell>
                <mxCell id="34" value="+ use(ICharacter &amp;amp;): void" style="text;html=1;strokeColor=none;fillColor=none;align=left;verticalAlign=top;spacingLeft=4;spacingRight=4;whiteSpace=wrap;overflow=hidden;rotatable=0;points=[[0,0.5],[1,0.5]];portConstraint=eastwest;" parent="78961159f06e98e8-56" vertex="1">
                    <mxGeometry y="196" width="160" height="26" as="geometry"/>
                </mxCell>
                <mxCell id="78961159f06e98e8-69" value="Ice" style="swimlane;html=1;fontStyle=1;align=center;verticalAlign=top;childLayout=stackLayout;horizontal=1;startSize=26;horizontalStack=0;resizeParent=1;resizeLast=0;collapsible=1;marginBottom=0;swimlaneFillColor=#ffffff;rounded=0;shadow=0;comic=0;labelBackgroundColor=none;strokeWidth=1;fillColor=none;fontFamily=Verdana;fontSize=12" parent="1" vertex="1">
                    <mxGeometry x="450" y="960" width="180" height="230" as="geometry"/>
                </mxCell>
                <mxCell id="78961159f06e98e8-77" value="" style="line;html=1;strokeWidth=1;fillColor=none;align=left;verticalAlign=middle;spacingTop=-1;spacingLeft=3;spacingRight=3;rotatable=0;labelPosition=right;points=[];portConstraint=eastwest;" parent="78961159f06e98e8-69" vertex="1">
                    <mxGeometry y="26" width="180" height="8" as="geometry"/>
                </mxCell>
                <mxCell id="78961159f06e98e8-78" value="+ Ice()" style="text;html=1;strokeColor=none;fillColor=none;align=left;verticalAlign=top;spacingLeft=4;spacingRight=4;whiteSpace=wrap;overflow=hidden;rotatable=0;points=[[0,0.5],[1,0.5]];portConstraint=eastwest;" parent="78961159f06e98e8-69" vertex="1">
                    <mxGeometry y="34" width="180" height="26" as="geometry"/>
                </mxCell>
                <mxCell id="78961159f06e98e8-79" value="+ Ice(const Ice &amp;amp;)" style="text;html=1;strokeColor=none;fillColor=none;align=left;verticalAlign=top;spacingLeft=4;spacingRight=4;whiteSpace=wrap;overflow=hidden;rotatable=0;points=[[0,0.5],[1,0.5]];portConstraint=eastwest;" parent="78961159f06e98e8-69" vertex="1">
                    <mxGeometry y="60" width="180" height="26" as="geometry"/>
                </mxCell>
                <mxCell id="78961159f06e98e8-80" value="+ Ice(const string &amp;amp;)" style="text;html=1;strokeColor=none;fillColor=none;align=left;verticalAlign=top;spacingLeft=4;spacingRight=4;whiteSpace=wrap;overflow=hidden;rotatable=0;points=[[0,0.5],[1,0.5]];portConstraint=eastwest;" parent="78961159f06e98e8-69" vertex="1">
                    <mxGeometry y="86" width="180" height="26" as="geometry"/>
                </mxCell>
                <mxCell id="78961159f06e98e8-81" value="+ ~Ice()" style="text;html=1;strokeColor=none;fillColor=none;align=left;verticalAlign=top;spacingLeft=4;spacingRight=4;whiteSpace=wrap;overflow=hidden;rotatable=0;points=[[0,0.5],[1,0.5]];portConstraint=eastwest;" parent="78961159f06e98e8-69" vertex="1">
                    <mxGeometry y="112" width="180" height="26" as="geometry"/>
                </mxCell>
                <mxCell id="26" value="+ operator=(const Ice &amp;amp;): Ice &amp;amp;" style="text;html=1;strokeColor=none;fillColor=none;align=left;verticalAlign=top;spacingLeft=4;spacingRight=4;whiteSpace=wrap;overflow=hidden;rotatable=0;points=[[0,0.5],[1,0.5]];portConstraint=eastwest;" parent="78961159f06e98e8-69" vertex="1">
                    <mxGeometry y="138" width="180" height="32" as="geometry"/>
                </mxCell>
                <mxCell id="27" value="+ const clone() AMateria *" style="text;html=1;strokeColor=none;fillColor=none;align=left;verticalAlign=top;spacingLeft=4;spacingRight=4;whiteSpace=wrap;overflow=hidden;rotatable=0;points=[[0,0.5],[1,0.5]];portConstraint=eastwest;" parent="78961159f06e98e8-69" vertex="1">
                    <mxGeometry y="170" width="180" height="26" as="geometry"/>
                </mxCell>
                <mxCell id="28" value="+ use(ICharcter &amp;amp;): void" style="text;html=1;strokeColor=none;fillColor=none;align=left;verticalAlign=top;spacingLeft=4;spacingRight=4;whiteSpace=wrap;overflow=hidden;rotatable=0;points=[[0,0.5],[1,0.5]];portConstraint=eastwest;" parent="78961159f06e98e8-69" vertex="1">
                    <mxGeometry y="196" width="180" height="26" as="geometry"/>
                </mxCell>
                <mxCell id="78961159f06e98e8-82" value="&lt;i&gt;IMateriaSource&lt;/i&gt;" style="swimlane;html=1;fontStyle=1;align=center;verticalAlign=top;childLayout=stackLayout;horizontal=1;startSize=26;horizontalStack=0;resizeParent=1;resizeLast=0;collapsible=1;marginBottom=0;swimlaneFillColor=#ffffff;rounded=0;shadow=0;comic=0;labelBackgroundColor=none;strokeWidth=1;fillColor=none;fontFamily=Verdana;fontSize=12" parent="1" vertex="1">
                    <mxGeometry x="80" y="440" width="180" height="145" as="geometry"/>
                </mxCell>
                <mxCell id="78961159f06e98e8-90" value="" style="line;html=1;strokeWidth=1;fillColor=none;align=left;verticalAlign=middle;spacingTop=-1;spacingLeft=3;spacingRight=3;rotatable=0;labelPosition=right;points=[];portConstraint=eastwest;" parent="78961159f06e98e8-82" vertex="1">
                    <mxGeometry y="26" width="180" height="8" as="geometry"/>
                </mxCell>
                <mxCell id="78961159f06e98e8-91" value="+ &lt;i&gt;~IMateriaSource()&lt;/i&gt;" style="text;html=1;strokeColor=none;fillColor=none;align=left;verticalAlign=top;spacingLeft=4;spacingRight=4;whiteSpace=wrap;overflow=hidden;rotatable=0;points=[[0,0.5],[1,0.5]];portConstraint=eastwest;" parent="78961159f06e98e8-82" vertex="1">
                    <mxGeometry y="34" width="180" height="26" as="geometry"/>
                </mxCell>
                <mxCell id="78961159f06e98e8-94" value="+ &lt;i&gt;learnMateria(AMateria *):&lt;/i&gt; void" style="text;html=1;strokeColor=none;fillColor=none;align=left;verticalAlign=top;spacingLeft=4;spacingRight=4;whiteSpace=wrap;overflow=hidden;rotatable=0;points=[[0,0.5],[1,0.5]];portConstraint=eastwest;" parent="78961159f06e98e8-82" vertex="1">
                    <mxGeometry y="60" width="180" height="30" as="geometry"/>
                </mxCell>
                <mxCell id="25" value="&lt;i&gt;+ createMateria(const string&amp;nbsp; &amp;amp;):&amp;nbsp;AMateria *&lt;/i&gt;" style="text;html=1;strokeColor=none;fillColor=none;align=left;verticalAlign=top;spacingLeft=4;spacingRight=4;whiteSpace=wrap;overflow=hidden;rotatable=0;points=[[0,0.5],[1,0.5]];portConstraint=eastwest;" parent="78961159f06e98e8-82" vertex="1">
                    <mxGeometry y="90" width="180" height="40" as="geometry"/>
                </mxCell>
                <mxCell id="2" value="" style="shape=image;verticalLabelPosition=bottom;labelBackgroundColor=default;verticalAlign=top;aspect=fixed;imageAspect=0;image=data:image/png,iVBORw0KGgoAAAANSUhEUgAAAVQAAAE6CAYAAABJbKqfAAAACXBIWXMAAA7EAAAOxAGVKw4bAAAAB3RJTUUH4QsJBQ4cl12vNgAAAAd0RVh0QXV0aG9yAKmuzEgAAAAMdEVYdERlc2NyaXB0aW9uABMJISMAAAAKdEVYdENvcHlyaWdodACsD8w6AAAADnRFWHRDcmVhdGlvbiB0aW1lADX3DwkAAAAJdEVYdFNvZnR3YXJlAF1w/zoAAAALdEVYdERpc2NsYWltZXIAt8C0jwAAAAh0RVh0V2FybmluZwDAG+aHAAAAB3RFWHRTb3VyY2UA9f+D6wAAAAh0RVh0Q29tbWVudAD2zJa/AAAABnRFWHRUaXRsZQCo7tInAAAf1UlEQVR4nO3dX2hbZ8Ln8d9psuOwfZnsexGRXLy9eSNmxz6Z0tmLueii5EAZWnhhGZClBspMAotYrZDBMLSkCZblbbp0WMoQIcSKBXcKJbWivVt2WigcW7A3e1OKj7Mw8sLLLNtkZd55iZeydWmqvXCek3MkOZaVR1Zifz9wsHTOo+c8xyU/P3+OTp1r1651t7e39eDBA21vb8c2s29nZ0dR3W5XwHHmOI4kaWpqSqdPn953m5+fn3CLcRicz7/+rrvzsKtvH0o7Pzz6+bAbe/19JD/ff+VFAhXHnuM4evfLb3TSkaZOODp1Qjp1wtndXth9PRXZ9+qZk5NuMg7BC5NuAAAcFQQqAFhCoAKAJQQqAFhCoAKAJQQqAFhCoAKAJQQqAFhCoAKAJQQqAFhCoAKAJQQqAFhCoAKAJQ6P7wMOjsf3YRAe3weM4Hl7fF+r1VKpVJLruqpUKhNtS69araZGoyHP87SwsDD05zzPkyTV63Ulk8m+95PAkB84BlZXVyVJQRCo1WpNtjE9tra2Yj9H0W63w9f37t176jaNiqfeAseA7/vh69XVVaVSqQm2Jm5hYeFAPdNBkslk7BonhR4qcMQ1m01Jj4fIg4Kn2WzK87xwi8pms+H+Wq0WO9Zut2Of6/2sUSwWY2Wi9dRqNXmep6WlpXBfq9XqK2/aYY4ZuVwuVj7aWzV1my16jui19V5/tI6DGClQFxcX5TgOG9ux3Mrl8kj/2Cblzp07kqTLly+HQWRCVtoNxWq1GvuMKbe0tKROpxPubzQaYRg2m03lcrm+85nQM3V7nqcgCGJlGo1GX7gZzWZTpVKpr3y0HcMoFotqNBqxfb7vK5vN9pXtvf5B1zWMkQO12+2ysR3Lrfcf+7Os1Wqp0+nIdV0lk0ldvnxZkrS2thaWMXOOruvK9315nhf+0TDzmuVyWfV6Xa7rKp/PS3ocQplMRr7vy/d9ZTKZ2LFbt27F6vZ9X/V6XZJ05syZgW02fwCi9RYKhViZaC+7Xq/3TWE0m80wxOv1elhPIpFQp9Pp62l7nhdrm6SReqkM+YEjzCxGzc7OStqda3RdV0EQhIGRSqXCXqTneZqeng4Dam5uTpJUKpV048aN8A4B0wONBqwk5fP5MLTa7XYYaqYe0wbf92OfM9rttjqdjhKJROx4Op2W67pDX/fdu3clSYVCIbbib4LZHDcuXboUti2RSEgabXGLQAWOMNOTK5VK4fygCbnbt2+H5RYWFsIeXLVaVbFYlPQ4/AqFgjqdTmw4fxCTuo1pWOfOnbNSD4EKHFHRedJBosPmYrGodrutlZUVJRKJsAfbarW0tLSkdDod9u6idwkEQRAbPps510QiEfaGTf2GmVcdxPQQO51ObI41OoQfxvT0tKTdqYfo0N1M15jjtnHbFHBEmXnSQTe6Ly0tyfd9NZtNbW1tKQiCvoWYZDIZ7ouGr5n7LBQKqlarajQafYs/Jnzn5uaUy+XC6YSoYrE48EsGhUJBpVIpnPccRTqd1tra2sDr6p1OsIkeKnAEtVotBUEQLkb1MnOGd+7cUT6fDxeTDLMo1Rto0TnTdDodW8QxfN8Pe7BmysDMSxqZTGbPb2ylUqm+ejOZTF8d+6lUKn3X5XmeVlZWDlTPQfDVU2AEjvN8ffUUh4MeKgBYQqACgCUEKgBYQqACgCUEKgBYQqACgCUEKgBYQqACgCUEKgBYQqACgCUEKgBYQqACgCXOtWvXutvb23rw4IG2t7djm9m3s7MT+xAPR8Fx5ziOJGlqakqnT5/ed5ufn59wi3EYnC7pCABWMOQHAEsIVACwhEAFAEsIVACwhEAFAEsIVACwhEAFAEsIVACwhEAFAEsIVACwhEAFAEt4OAowAh6OgkGcz7/+rrvzsKtvH0o7Pzz6+bAbe/19JD/ff+VFAhXHnuM4evfLb3TSkaZOODp1Qjp1wtndXth9PRXZ9+qZk5NuMg4BQ34AsIRABQBLCFQAsIRABQBLCFQAsIRABQBLCFQAsIRABQBLCFQAsIRABQBLCFQAsIRABQBLCFQce47j6OrVq9rc3Jx0U/CcO7laKemgj+8DjqILFy7ozTff1PXr13X+/Pl9y7//yotDP77vVR7fdyzw+D4ce47jqNvtanNzUzdv3tSnn366b7Dy+D4MwpAfeOT8+fNaXl7W+vq6pN0eK1MBOAgCFehxFIK1WCzK8zy1Wq2xfmYY7XZbnufJ8zxJUqvVkud5ymazVs/zLCBQgT0chWB9Fty7dy983W63J9iS8RtpYmdxcVHlctl2W4BnkgnWn/70p3rnnXf00UcfTbpJz5VUKiXf98P30YA9akYO1MXFRctNASbD/A/39hJdrLpy5YquX7+uZDJ5SK2zY2lpSb7vq1AoqFqthvsLhYLS6XRfeTM8l6RyuaxUKhW+b7VaKpVKsfImMNvttnK5nFzXlSQFQaAbN27ovffeC+syn+10OvI8L/ysaWO0bdVqVYlEQisrK2o2m6pWq/I8T1tbWwqCIGzrwsJCrD3FYjE8LkmZTEb5fH7g7yR6zb31HBRDfmAPm5ubunr1qi5cuCBJWl9f1/Ly8lC3VD2romFq3vfOmfaGZalUCofqzWaz77i0G0bR4XwQBAqCQK7r6qWXXtq3XcViMRZug9pq+L4fC0vf91Wr1SQ9nq+NHpekRqOhpaWlJ57P930Vi8V92/okBCrQ4ygGqZFIJOT7vnzfVyKRkLTbU4xyXTcsY5hhugm5crkcljHTf7du3YrVUy6XValUYvtSqVRY3rSl1WqFAViv18N6TS93EFPO9KS3trZibYheQ71elySdOXNG0u4fhSAIYr8LU1cQBGo2m/v/IvfAzXHAI733oa6vrx+JEI26dOlS+HpmZkadTicMI+PixYvha9d1FQSBOp1OrCc7qJfa2yuMThM8ycbGhqTdYXl0KmVubk65XK6vvOu6Ybnp6Wn5vh9eg2nD3NxcWD6ZTMb+ONy9e1fS4ymHXub4KOihAtKR7ZH2Mr20JzE911H8+c9/fuo69jPMNTzNHHfvH5iDoIcKPHIUe6Q2RXuc9Xp9YGiZedTeaYQnmZmZkbQ7zzkzMxOep3cKYRimR10sFsPpBrNQZnqpplfrum7flMTTIlBx7PFV6uGZlfdBQ/FMJqPXXnvtwHWmUqlwtX/QVMJBmGmCIAj6hvMmZNPptNbW1gaWkfb+YzEMhvwAhpZOpwfeg14ul/tuSzqIhYUFZTKZ2L5CoXDgesx8ae+UQyaTifVGK5VKX5iaRaqnmS7g4SjACHg4CgahhwoAlhCoAGAJgQoAlhCoAGAJgQoAlhCoAGAJgQoAlhCoAGAJgQoAlhCoAGCJc+3ate729rYePHig7e3t2Gb27ezsxD7EV09x3Jn/bcrU1JROnz697zY/Pz/hFuMwOF3SEQCsYMgPAJYQqABgCYEKAJYQqABgCYEKAJYQqABgCYEKAJYQqABgCYEKAJYQqABgCYEKAJYQqABgCYEKAJbw+D5gBDy+D4M4n3/9XXfnYVffPpR2fnj082E39vr7SH6+/8qLBCqOPcdx9O6X3+ikI02dcHTqhHTqhLO7vbD7eiqy79UzJyfdZBwChvwAYAmBCgCWEKgAYAmBCgCWEKgAYAmBCgCWEKgAYAmBCgCWEKgAYAmBCgCWEKgAYAmBimPPcRzNvnVFm5ubk24KnnMEKiDpT//3oabdCwQrngqP78OxZ54c9Y//63/qv/2n3+l/fN7Uv0pn9e8Xb+j8+fN7fkbi8X2I4/F9OPZMoBrDBCuP78MgDPmBHn/9N3+rvyv/R/3rO//9uZ8KaDab8jwvthWLxbGcq1aryfM8LS0tSVJ4vna7baX+YrEoz/PUbDYlSdlsVp7nqdVqWanfBgIV2MNRCtaoIAjC0BuXaIjeu3dvLOfodDqxn8+CkQJ1cXFRjuPIcRwtLi4+8TjlKPesl9uPCdZ/+W9uqPnJH5RMJvf9zLPG8zz5vq96vS5J8n1/rOdLJpPyfV++7yuVSo3lHKb+dDo9lvpHwRwqjr3eOdReL/7D3+vL5d/pv/znFb355pu6fv26ksnkczGH2mw2Va1W5XmeFhYW1G63lcvlJMVDdWlpKfbelB9Ul1EoFML39XpdX3zxhRqNRvhZz/PCY7dv3x4Y4plMRvl8PtYuc/6trS0FQaBCoaC1tTUFQRD73OrqqjqdjsrlchjavW10XVeVSiV8XywWwzqj5aJ1PA1myoE99Abp+vr6nqv+zzrTmzNM2EmPQ6a3/NbWVhhGtVpNjUYjViYaSKNwXVf5fF6tVkulUqnv/AfV+0dB2p3eML3zqN62l0ol1ev1px59MIcK9HjxH/5ef/oP/1b/7u/+hf7qnzhaX1/X8vLycxumvTKZTNj7bDabCoJAiUQiDF3f9+V5noIgCBeATJgWCoWwTCaTGfqcCwsLfaE+NzcnSbpz546kx9MSvu+rXC7HPl+pVOS6btiGfD4fO95qtcK6y+VyWI/5TO+cseu6fe2xMddLoAKPHOUg9TwvDJeZmZlw/927dyXtLuxE7wQwQXP37t1wFd113dh8ZT6fVyKROFA7arWapN1QN71B0zuOTjGkUqlYL3o/GxsbYb3RobsJbXPcuHjxYvja/F5sLG4RqIB0ZIM0anZ2VtLjHuEwtra2rJ2/3W6HPd3eHuZhO+gfgmExhwpIYZAetRCNSqVScl1XQRCo1WoplUppeno6HBpHF28GCYJAtVotDMNarXagXt3t27cl7Q7Zo0ybisVi2IboEH4YptfdaDQ0MzMT9lJv3LgROz5uBCqOveN018rs7KyCINCdO3eUSqWUTqfDFfRBQ2yzUGNWxRuNRt/i1DCiAVmtVsNFoUKhoLm5OeVyuT3bMAwzReD7ft8Cl6S+OxbGhSE/cIxEe6lmwalSqfQFmVmkMvOc6XS6b6Got6f5JINCzjD3rEZF53yHtbCwMLD3O+57bqO4DxUYAd/lxyD0UAHAEgIVACwhUAHAEgIVACwhUAHAEgIVACwhUAHAEgIVACwhUAHAEgIVACwhUAHAEufatWvd7e1tPXjwQNvb27HN7NvZ2Yl9iO/y47gz/3O/qakpnT59et9tfn5+wi3GYXC6pCMAWMGQHwAsIVABwBICFQAsIVABwBICFQAsIVABwBICFQAsIVABwBICFQAsIVABwBICFQAsIVABwBICFQAs4fF9wAh4fB8GcT7/+rvuzsOuvn0o7fzw6OfDbuz195H8fP+VFwlUHHuO4+jdL7/RSUeaOuHo1Anp1Alnd3th9/VUZN+rZ05Ousk4BAz5AcASAhUALCFQAcASAhUALCFQAcASAhUALCFQAcASAhUALCFQAcASAhUALCFQAcASAhXH3gcffKD5+Xndv39/0k3Bc45AxbH3m9/8Ro7jaGZmhmDFU+HxfcAj9+/f1+9+9zv94Q9/0K9//Wu98847Onv27MCyPL4Pg/D4PqDHMMHK4/swCEN+oMfZs2f14YcfamNj47meCigWi/I8r29rt9uTbtrIms2mPM9TsVicdFMGIlCBPRyVYO2Vy+VUq9Um3YwjaaRAXVxclOM44ba4uLhvGcpR7nktd/bsWf34xz/WX/7yF/3+979XKpXqq+dZVi6X5fu+fN9XJpORJDUaDbVarQm37OhhDhXYx/379/XBBx/o448/1m9+8xu9/fbbOnfu3DM/h1osFhUEgcrlcuyPQK1WU6PRkOd5WlhY6CtvZDIZ5fN5SVK73VYul1MikdDs7Kyq1WpYrrf+g9R16dIlNRoNSVIikdDKysqe9UTP7bquKpVKWM7zvNjnom1qtVoqlUpyXVdnzpyR7/uS1FdH9HdjRMtks1l1Op2+643uZ8gP7OH+/fuan5/XzMyMHMfRxsaGPvzwwz1X/p8Xr732miRpY2Mj3JfNZmMBKO32YpeWlmL7Op1OLEwlqVQqqdlsjlRXNLw6nU5sbrS3nkHnbrfbfWE6qE2SFARBGKbmfbRN2Ww21h5TJpvNSpJmZ2clSaurq+HxVqulTqcj13WVSqUIVKDXUQ1SI5lMStoNKGm3V2ZCwUwN+L4fvu+dGshkMn1TCCboDlpXoVCQ7/sqFAqxNjWbzfB1tJ5EIhH7/K1bt/raZEKzN3ylx9Mfpt1bW1uxdg8638zMjNrtttLpdHjcLOzduXNH0uOw5V4O4JHeof3GxsaRCdGo3lX+u3fvStrtjQ3q7W1sbOjcuXOSdofAZuguSfl8Xqurq+p0Omq32weqS1IYUi+//LKkx4Fq6jFBaxQKBZVKpfC96cE2Go2+3qWkWIAnEolwqD4zMzPU+XqnIDKZjBqNhr744gvdu3dPQRDE6qWHimPvqPdIe3311VeSdsNxGKYXZ0O0rt7e5jiYwBz2fPuVMdMlq6ur4dDf9E4leqiAPv744zBIj2qIGq1WKxwKX7x4UZI0PT0d9iiji1RRplcbBIFqtVrYSzVD5UQioWQyeaC6nmR6elq+76tarerll18Opyl6h/Gu6yoIAhUKhbC3O+iahzlfEAQqlUqxedZsNqtCoRD2QJPJZHhOc93R8xKoOPbefvvtSTdhrKJDZMPzvDAIzLA9Ov8Y1btv0PDa9NIOWtde0um01tbWFASBcrncnuXm5uaUy+VUrVYHhm3vKv5eolMXvVMVvSF78eLFcKrh0qVLsbIM+YFjplAo9PUeV1ZW+qYAzEJSVCKR6JtnLJfLsV7asHXtp1Kp9IVb77mTyeTAejOZzNBhaqysrPSdb1C7o9canU+WuA8VGMlx+y5/9N7R3oWa42av+3gleqgAcCBmMery5ct9xwhUABiSWYTzPC9cKItiyA+M4LgN+TEceqgAYAmBCgCWEKgAYAmBCgCWEKgAYAmBCgCWEKgAYAmBCgCWONeuXetub2/rwYMH2t7ejm1m387OTuxD3NiP485xHEnS1NSUTp8+ve82Pz8/4RbjMDhd0hEArGDIDwCWEKgAYAmBCgCWEKgAYAmBCgCWEKgAYAmBCgCWEKgAYAmBCgCWEKgAYAmBCgCWEKgAYAmBCgCW8Pg+YAQ8vg+DOJ9//V1352FX3z6Udn549PNhN/b6+0h+vv/KiwQqjj3HcfTul9/opCNNnXB06oR06oSzu72w+3oqsu/VMycn3WQcAob8AGAJgQoAlhCoAGAJgQoAlhCoAGAJgQoAlhCoAGAJgQoAlhCoAGAJgQoAlhCoAGDJWAN1c3NTV69eleM4unr1qjY3N8d5OgCYqLEEqgnSCxcuSJL++Mc/SpIuXLhAsAI4sqw+vm9zc1M3b97Up59+qjfffFPXr1/X+fPnhz4OPC94fB8GsfL4voMGJcGK5x2P78MgTzXk7x3ar6+va3l5ed9wPH/+vJaXl7W+vi6JqQDgsLRaLXmep2KxOOmmHIp2uy3P8+R53sD3to0UqKMGaS+CFThcq6urkqQgCNRqtSbbmAm4d+9e+Lrdbluvf6RxSDKZlLS72PT6668/dSNMsGazWb3xxhv66KOPnrpOYFwWFxcn3YSR+b4fvl5dXVUqlZpgaw5fKpWK/Q5sGylQ2+22bt68qV/96ldW5kCjc6pXrlxhThXPvOcxVJvNpiTJ8zz5vi/f97WwsDCwXLVaDd8XCoXwfb1eDztUxWJRQRBIkhKJhC5duqRGoyHXdTU3N6dcLifXdSXt9ojNZ1utlkqlUuycvSHXbreVy+XC95lMRqurq+p0OioUCkqn0/u29caNG3rvvffCY57nxfZFz7m0tBR7n8lklM/nY22JXqO55pWVlVi7Rxry2xqq25o6ALC/O3fuSJIuX74cziGakDVqtVosoCT1vZekbDYbhqkkdTqdMGiigiBQEARyXVfJZFLNZrMvTKXdsDND8FarFQtTSWo0Gup0OiO1dT/ZbLYv0BuNRt88c+81djqdvjJPtSg1arASpMDharVa6nQ6YbBdvnxZkrS2thYrZwIjk8mEvdjeBZxmsxmGW71eD8vtpVwuq1KpSHoceOVyOfxcuVyWJN26dUvS4+B3XTcsUygU+uo1bS0UCmG5TCYTHn/ppZdUr9fD977v66WXXorVUavVwmsxdZhrCYKg7w+OOZdpT2/IW7mxf9hgJUiByTCLUbOzs5J210Fc11UQBGHP0PxMJBLhcFdS37TA1taWpN3QNcN/SQNDT1I4TxtdBCuVSuFqu+mxmh6vCam5ubmwfDqdDqcPonW5rhsO/yUpn88rkUg84TcRd/fuXUkKQ733WszxaDsk6eWXX4611bD6Tam9gvWzzz4jSIEJMr2uaJCZALt9+/bYznuQcJPGs/JuyzDXMpavnvYG6xtvvCGJIAUmoXfY2suEreltdjod1Wq18PjS0lKs/JkzZyTtDrmjATho/jLag4veURCdKohuyWQyDC4zBWCuITpna+oKgiDW1ugQfhjT09OSFJvXbbfb4bWY48Ma69c3TLAuLy+P8zQAnsDMk0ZX6A2zut1sNpVOp8NV8kajMXCRSdod9q6trSkIgr7Fo/2Y+gd9zqysmzsEgiB44g34w7R1P/l8Prx7oPdcZjrhIL1mHt8HHGGtViu2yt7r0qVLkh4vBKXT6T3nE6XHvdhKpRILoEQiES4ImR7sIIPql3bnMM28bTKZ7FvkymQyYc/V/NyvrcNaWVnpC9NMJhMupB2Ele/yA8fNcfouf61WU6PRGHjfZVQ2m1Wn04ndw2lL9N7VQT3tZ8Xz+18ZgFW9N9P3MncImIDdy9OGqQnmQTzPe2bDVGLID+ARM9SO3p5klMvl8JahfD4fu7/TSCQSVr7WubKyEruf1MhkMgO/2fUsYcgPjOA4DfkxPHqoAGAJgQoAlhCoAGAJgQoAlhCoAGAJgQoAlhCoAGAJgQoAljjXrl3rbm9v68GDB9re3o5tZt/Ozk7sQ9zYj+POcRxJ0tTUlE6fPr3vNj8/P+EW4zA4XdIRAKxgyA8AlhCoAGAJgQoAlhCoAGAJgQoAlhCoAGAJgQoAlhCoAGAJgQoAlhCoAGAJgQoAlhCoAGAJgQoAlvD4PmAEPL4Pgziff/1dd+dhV98+lHZ+ePTzYTf2+vtIfr7/yosEKo49x3H07pff6KQjTZ1wdOqEdOqEs7u9sPt6KrLv1TMnJ91kHAKG/ABgCYEKAJYQqMCYPfzu20k3AYeEQAXGrL32XyfdBBwSAhUYo+17f9b2//nfk24GDgmBCozR/3vwj5NuAg4RgQqMFbcYHicEKjBGP/qnfzXpJuAQEajAGP313/ytTv34n026GTgkBCowTo6jf/7arybdChwSAhUYM4b9xweBCgCWjDVQP/nkE507d06O4+iNN97Q5ubmOE8HABM1lsf3ffLJJ/rtb3+r+/fvx/a/8MIL+uUvf6lKpaLz589bvxjgsPD4Pgxi9fF9ewVpL4IVzzse34dBrAz5zdD+rbfe2jdMJemHH37QZ599pp/85CdMBQCHpFgsyvO82NZutyfdLKuy2aw8z1Or1ZKkvusc93U/VaAeNEh7EazA+DWbTXmepyAI+o7lcjkVi8UJtGo8Op1O7GdUNETv3bs3lvOPNA4Zdmg/rGiwMhUA2NNqtVStViXt9s4WFhbCY81mU9VqVUEQqNVqKZVKTaqZ1vi+v+exZDL5xOM2jBSob731lu12SJJc19Vnn32mZDI5lvoBGxYXFyfdhKHduXNHkpTJZJTP52PH0um00ul032dqtZoajUb4vjeIs9msOp2OyuWySqVSuL9eryuZTMrzvHBfoVBQOp1Wu91WLpdTIpHQ7OxsGPKSVC6X+8J8aWkpFn697Y8ed11XlUrliW3L5XKxfaatB7neQqEQa3e0DmOkIX+73daVK1f0ox/9SGfPnh2liphf/OIXev311/WnP/1JV65cUbvdVrfbZWN7JrfoP9RnnRnmv/baa0OVLxaLsXCRdnt92Wy2r2zv7yGXy8XCVJKq1WpsqN3pdGKhZOppNpvh+2w229eTbDQa4dREs9mMHQ+CYORpi4Ncb2+7c7lcX5mRAvX8+fNaXl7WxsaGXn/99ZGD1QTpV199pbNnz2p9fV3Ly8sM9wHLhhn1NZvNMIDr9bp835fv+0okEup0OqrVarHynufJ933V6/Vwn+u6sc9J0ldffRX7XCaTCctkMhlJj8OqVquF85+mjAnPIAjUbDa1tbUVqyeRSIQ91Kho6Nbr9b5esI3r7V3ceqpFqVGDlSAFDtcwq9p3796VtDtMjwZwoVCIHTcuXbokaTesXdeVJF28eDE8PjMz03cO13VjQ/d8Ph8Gb7vdDs9RLpdjn4u2wXym0WjI8zy99957+17bIE9zvabNvYtbVm6bGjZYCVLgcJmg++KLL6zXfe7cub59JmjGbWVlJewp5nK5vt7kOAy63l5Wv3q6V7D+7Gc/I0iBCZidnZW0Owe5tLQUO2ZupzLzhdPT05L65z3NXKk5/jSCIIiFnxniJxIJJZPJ8BzR+dl2ux1OCZjj2WxWyWQyDNXV1dUDt2Uc1zuWr2+YYL1+/bpu3rypjz76SD//+c+1vr5OiAKHKJVKhavT0fnIXq1WS+l0WmtrawqCoG/BJZFI9N0lMKpGo9G3EGSCP5/Pa3V1VZ1Op2+By3VdpdNpFYvFvuOj9IzHcb1jfTiKCdZut0uPFJiQdDodWySKKpfLWllZCRdsKpVKuFBkeJ6nlZUVK21JJBLhHGW0DdHbt1ZWVvrCNJPJhAtPlUolnMowBi1KDcP29Vr9Lj9wXPBd/oOJ3odqK5yfRTwPFQAsIVABwJLjPQ4BcCgO43v0zwJ6qABgCYEKAJYQqABgCYEKAJYQqABgCYEKAJYQqABgCYEKAJY4165d625vb+vBgwfa3t6ObWbfzs5O7EN8lx/HneM4kqSpqSmdPn16321+fn7CLcZh+P+nbJrC22FIoQAAAABJRU5ErkJggg==;" parent="1" vertex="1">
                    <mxGeometry x="1740" y="20" width="430" height="397.12" as="geometry"/>
                </mxCell>
                <mxCell id="38" value="MateriaSource" style="swimlane;html=1;fontStyle=1;align=center;verticalAlign=top;childLayout=stackLayout;horizontal=1;startSize=26;horizontalStack=0;resizeParent=1;resizeLast=0;collapsible=1;marginBottom=0;swimlaneFillColor=#ffffff;rounded=0;shadow=0;comic=0;labelBackgroundColor=none;strokeWidth=1;fillColor=none;fontFamily=Verdana;fontSize=12" parent="1" vertex="1">
                    <mxGeometry x="60" y="720" width="250" height="226" as="geometry"/>
                </mxCell>
                <mxCell id="39" value="" style="line;html=1;strokeWidth=1;fillColor=none;align=left;verticalAlign=middle;spacingTop=-1;spacingLeft=3;spacingRight=3;rotatable=0;labelPosition=right;points=[];portConstraint=eastwest;" parent="38" vertex="1">
                    <mxGeometry y="26" width="250" height="8" as="geometry"/>
                </mxCell>
                <mxCell id="44" value="+ MateriaSource()" style="text;html=1;strokeColor=none;fillColor=none;align=left;verticalAlign=top;spacingLeft=4;spacingRight=4;whiteSpace=wrap;overflow=hidden;rotatable=0;points=[[0,0.5],[1,0.5]];portConstraint=eastwest;" parent="38" vertex="1">
                    <mxGeometry y="34" width="250" height="26" as="geometry"/>
                </mxCell>
                <mxCell id="43" value="+ MateriaSource(const MateriaSource &amp;amp;)" style="text;html=1;strokeColor=none;fillColor=none;align=left;verticalAlign=top;spacingLeft=4;spacingRight=4;whiteSpace=wrap;overflow=hidden;rotatable=0;points=[[0,0.5],[1,0.5]];portConstraint=eastwest;" parent="38" vertex="1">
                    <mxGeometry y="60" width="250" height="26" as="geometry"/>
                </mxCell>
                <mxCell id="45" value="+ operator=(const MateriaSource &amp;amp;): MateriaSource &amp;amp;" style="text;html=1;strokeColor=none;fillColor=none;align=left;verticalAlign=top;spacingLeft=4;spacingRight=4;whiteSpace=wrap;overflow=hidden;rotatable=0;points=[[0,0.5],[1,0.5]];portConstraint=eastwest;" parent="38" vertex="1">
                    <mxGeometry y="86" width="250" height="34" as="geometry"/>
                </mxCell>
                <mxCell id="40" value="+ ~MateriaSource()" style="text;html=1;strokeColor=none;fillColor=none;align=left;verticalAlign=top;spacingLeft=4;spacingRight=4;whiteSpace=wrap;overflow=hidden;rotatable=0;points=[[0,0.5],[1,0.5]];portConstraint=eastwest;" parent="38" vertex="1">
                    <mxGeometry y="120" width="250" height="26" as="geometry"/>
                </mxCell>
                <mxCell id="41" value="+ learnMateria(AMateria *): void" style="text;html=1;strokeColor=none;fillColor=none;align=left;verticalAlign=top;spacingLeft=4;spacingRight=4;whiteSpace=wrap;overflow=hidden;rotatable=0;points=[[0,0.5],[1,0.5]];portConstraint=eastwest;" parent="38" vertex="1">
                    <mxGeometry y="146" width="250" height="30" as="geometry"/>
                </mxCell>
                <mxCell id="42" value="+ createMateria&lt;i&gt;(&lt;/i&gt;const string&amp;nbsp; &amp;amp;&lt;i&gt;):&lt;/i&gt;&amp;nbsp;AMateria *" style="text;html=1;strokeColor=none;fillColor=none;align=left;verticalAlign=top;spacingLeft=4;spacingRight=4;whiteSpace=wrap;overflow=hidden;rotatable=0;points=[[0,0.5],[1,0.5]];portConstraint=eastwest;" parent="38" vertex="1">
                    <mxGeometry y="176" width="250" height="40" as="geometry"/>
                </mxCell>
            </root>
        </mxGraphModel>
    </diagram>
</mxfile>